<svg width="512" height="512" viewBox="0 0 512 512" fill="none" xmlns="http://www.w3.org/2000/svg">
  <!-- Background Circle -->
  <circle cx="256" cy="256" r="256" fill="#2563eb"/>
  
  <!-- Main Icon - Trophy/Cup Shape -->
  <path d="M150 192 C150 150, 190 110, 256 110 C322 110, 362 150, 362 192 L362 235 C362 300, 322 340, 256 340 C190 340, 150 300, 150 235 Z" fill="white"/>
  
  <!-- Trophy Base -->
  <rect x="214" y="340" width="84" height="32" rx="8" fill="white"/>
  <rect x="192" y="372" width="128" height="26" rx="13" fill="white"/>
  
  <!-- Trophy Handles -->
  <path d="M128 214 C107 214, 85 192, 85 171 C85 150, 107 128, 128 128" stroke="white" stroke-width="12" fill="none"/>
  <path d="M384 214 C405 214, 427 192, 427 171 C427 150, 405 128, 384 128" stroke="white" stroke-width="12" fill="none"/>
  
  <!-- Inner Details -->
  <circle cx="256" cy="214" r="32" fill="#2563eb"/>
  <rect x="224" y="246" width="64" height="8" rx="4" fill="#2563eb"/>
  <rect x="235" y="262" width="42" height="6" rx="3" fill="#2563eb" opacity="0.7"/>
  
  <!-- Text -->
  <text x="256" y="460" text-anchor="middle" fill="white" font-family="Arial, sans-serif" font-size="36" font-weight="bold">TipsterBro</text>
</svg>