<svg width="400" height="475" viewBox="0 0 400 475" fill="none" xmlns="http://www.w3.org/2000/svg">
<path d="M0 475V0H221.583C279.137 0 320.384 11.2943 345.324 33.8829C370.743 56.4715 383.453 87.371 383.453 126.581C383.453 144.908 380.576 161.104 374.82 175.168C369.544 188.807 361.391 200.314 350.36 209.69C339.808 218.641 326.379 224.821 310.072 228.23C322.542 231.214 334.293 235.689 345.324 241.655C356.355 247.622 365.947 255.507 374.101 265.31C382.254 275.112 388.489 286.62 392.806 299.832C397.602 313.044 400 327.961 400 344.583C400 375.695 393.765 400.841 381.295 420.02C368.825 439.199 350.12 453.264 325.18 462.214C300.24 470.738 269.305 475 232.374 475H0Z" fill="white"/>
<path d="M0 475V0H221.583C279.137 0 320.384 11.2943 345.324 33.8829C370.743 56.4715 383.453 87.371 383.453 126.581C383.453 144.908 380.576 161.104 374.82 175.168C369.544 188.807 361.391 200.314 350.36 209.69C339.808 218.641 326.379 224.821 310.072 228.23C322.542 231.214 334.293 235.689 345.324 241.655C356.355 247.622 365.947 255.507 374.101 265.31C382.254 275.112 388.489 286.62 392.806 299.832C397.602 313.044 400 327.961 400 344.583C400 375.695 393.765 400.841 381.295 420.02C368.825 439.199 350.12 453.264 325.18 462.214C300.24 470.738 269.305 475 232.374 475H0Z" fill="white"/>
<path d="M182.5 475H0L0.000392272 425.883L0 387.573L9.91014 388.673C9.91014 388.673 54.7809 394.146 74.4691 394.146C92.7837 394.146 106.52 391.511 115.677 386.241C125.292 380.971 130.1 373.876 130.1 364.957C130.1 356.849 124.834 350.565 114.303 346.105C103.772 341.24 90.0365 336.781 73.0955 332.727C56.6124 328.673 38.9846 324.01 20.2121 318.74C1.43965 313.064 0 312.447 0 312.447V275.132L0.000104606 219.617L7.47185e-06 144.283V78.6092C7.47185e-06 78.6092 67.83 60.2903 108.122 60.2903C135.136 60.2903 161.464 63.5336 187.104 70.0202C213.202 76.1013 234.035 84.4123 249.603 94.953L226.251 184.346C202.9 175.833 181.839 169.751 163.066 166.103C144.751 162.049 127.352 160.021 110.869 160.021C91.639 160.021 76.9874 162.454 66.9144 167.319C56.8413 172.184 51.8048 178.67 51.8048 186.779C51.8048 194.481 57.0703 200.765 67.6012 205.63C78.1321 210.495 91.639 215.157 108.122 219.617C124.605 224.076 142.233 229.144 161.006 234.82C179.778 240.496 197.406 247.996 213.889 257.32C230.372 266.645 243.879 278.807 254.41 293.807C264.941 308.807 270.207 327.659 270.207 350.362C270.207 397.39 252.5 426.638 221.5 450C190.5 473.362 182.5 475 182.5 475Z" fill="#121212"/>
<path d="M97.9351 16.7764H283.186V202.89H97.9351V16.7764Z" fill="white"/>
<path d="M128.024 60.2903H271.386V185.065L242.714 160.11H128.024V60.2903Z" fill="#4F46E5"/>
</svg>
